HIERARCHY
ROOT Hips
{
	OFFSET 0.000000 0.000000 0.000000
	CHANNELS 6 Xposition Yposition Zposition Xrotation Yrotation Zrotation
	JOINT Thigh.L
	{
		OFFSET 0.053667 0.029083 -0.093464
		CHANNELS 3 Xrotation Yrotation Zrotation
		JOINT Shin.L
		{
			OFFSET 0.059516 0.008282 -0.412983
			CHANNELS 3 Xrotation Yrotation Zrotation
			JOINT Foot.L
			{
				OFFSET -0.041974 0.031445 -0.435853
				CHANNELS 3 Xrotation Yrotation Zrotation
				JOINT Toe.L
				{
					OFFSET 0.047206 -0.125139 -0.064734
					CHANNELS 3 Xrotation Yrotation Zrotation
					End Site
					{
						OFFSET 0.000000 0.050000 0.000000
					}
				}
			}
		}
	}
	JOINT Thigh.R
	{
		OFFSET -0.058894 0.024030 -0.105628
		CHANNELS 3 Xrotation Yrotation Zrotation
		JOINT Shin.R
		{
			OFFSET -0.048478 0.015670 -0.394783
			CHANNELS 3 Xrotation Yrotation Zrotation
			JOINT Foot.R
			{
				OFFSET 0.014628 0.019770 -0.444983
				CHANNELS 3 Xrotation Yrotation Zrotation
				JOINT Toe.R
				{
					OFFSET -0.038916 -0.125963 -0.064570
					CHANNELS 3 Xrotation Yrotation Zrotation
					End Site
					{
						OFFSET 0.000000 0.050000 0.000000
					}
				}
			}
		}
	}
	JOINT Spine
	{
		OFFSET -0.002512 0.023689 0.111795
		CHANNELS 3 Xrotation Yrotation Zrotation
		JOINT Spine.2
		{
			OFFSET 0.008090 0.004920 0.140542
			CHANNELS 3 Xrotation Yrotation Zrotation
			JOINT Chest
			{
				OFFSET -0.010418 -0.021628 0.055187
				CHANNELS 3 Xrotation Yrotation Zrotation
				JOINT Neck
				{
					OFFSET -0.011270 0.023045 0.166877
					CHANNELS 3 Xrotation Yrotation Zrotation
					JOINT Head
					{
						OFFSET 0.024679 -0.023078 0.170118
						CHANNELS 3 Xrotation Yrotation Zrotation
						End Site
						{
							OFFSET 0.000000 0.050000 0.000000
						}
					}
				}
				JOINT Clavicle.L
				{
					OFFSET 0.046475 0.003703 0.086018
					CHANNELS 3 Xrotation Yrotation Zrotation
					JOINT UpperArm.L
					{
						OFFSET 0.123353 0.014272 0.058821
						CHANNELS 3 Xrotation Yrotation Zrotation
						JOINT ForeArm.L
						{
							OFFSET 0.270010 0.040627 -0.075962
							CHANNELS 3 Xrotation Yrotation Zrotation
							JOINT Hand.L
							{
								OFFSET 0.272835 0.002145 0.021770
								CHANNELS 3 Xrotation Yrotation Zrotation
								JOINT Thumb1.L
								{
									OFFSET 0.154616 0.000940 0.009544
									CHANNELS 3 Xrotation Yrotation Zrotation
									JOINT Thumb2.L
									{
										OFFSET 0.029904 0.000235 0.002386
										CHANNELS 3 Xrotation Yrotation Zrotation
										End Site
										{
											OFFSET 0.024920 0.000196 0.001988
										}
									}
								}
								JOINT Index1.L
								{
									OFFSET 0.137616 0.000940 0.009544
									CHANNELS 3 Xrotation Yrotation Zrotation
									JOINT Index2.L
									{
										OFFSET 0.029904 0.000235 0.002386
										CHANNELS 3 Xrotation Yrotation Zrotation
										JOINT Index3.L
										{
											OFFSET 0.021930 0.000172 0.001750
											CHANNELS 3 Xrotation Yrotation Zrotation
											End Site
											{
												OFFSET 0.017942 0.000141 0.001432
											}
										}
									}
								}
								JOINT Middle1.L
								{
									OFFSET 0.119616 0.000940 0.009544
									CHANNELS 3 Xrotation Yrotation Zrotation
									JOINT Middle2.L
									{
										OFFSET 0.030901 0.000243 0.002466
										CHANNELS 3 Xrotation Yrotation Zrotation
										JOINT Middle3.L
										{
											OFFSET 0.021930 0.000172 0.001750
											CHANNELS 3 Xrotation Yrotation Zrotation
											End Site
											{
												OFFSET 0.017942 0.000141 0.001432
											}
										}
									}
								}
								JOINT Ring1.L
								{
									OFFSET 0.101616 0.000940 0.009544
									CHANNELS 3 Xrotation Yrotation Zrotation
									JOINT Ring2.L
									{
										OFFSET 0.028907 0.000227 0.002307
										CHANNELS 3 Xrotation Yrotation Zrotation
										JOINT Ring3.L
										{
											OFFSET 0.019936 0.000157 0.001591
											CHANNELS 3 Xrotation Yrotation Zrotation
											End Site
											{
												OFFSET 0.016946 0.000133 0.001352
											}
										}
									}
								}
								JOINT Pinky1.L
								{
									OFFSET 0.085616 0.000940 0.009544
									CHANNELS 3 Xrotation Yrotation Zrotation
									JOINT Pinky2.L
									{
										OFFSET 0.023923 0.000188 0.001909
										CHANNELS 3 Xrotation Yrotation Zrotation
										JOINT Pinky3.L
										{
											OFFSET 0.016946 0.000133 0.001352
											CHANNELS 3 Xrotation Yrotation Zrotation
											End Site
											{
												OFFSET 0.013955 0.000110 0.001114
											}
										}
									}
								}
							}
						}
					}
				}
				JOINT Clavicle.R
				{
					OFFSET -0.046328 0.009883 0.085150
					CHANNELS 3 Xrotation Yrotation Zrotation
					JOINT UpperArm.R
					{
						OFFSET -0.107160 0.009894 0.055005
						CHANNELS 3 Xrotation Yrotation Zrotation
						JOINT ForeArm.R
						{
							OFFSET -0.287826 0.026504 -0.041297
							CHANNELS 3 Xrotation Yrotation Zrotation
							JOINT Hand.R
							{
								OFFSET -0.269128 0.015422 -0.004971
								CHANNELS 3 Xrotation Yrotation Zrotation
								JOINT Thumb1.R
								{
									OFFSET -0.154783 0.006864 -0.002213
									CHANNELS 3 Xrotation Yrotation Zrotation
									JOINT Thumb2.R
									{
										OFFSET -0.029946 0.001716 -0.000553
										CHANNELS 3 Xrotation Yrotation Zrotation
										End Site
										{
											OFFSET -0.024955 0.001430 -0.000461
										}
									}
								}
								JOINT Index1.R
								{
									OFFSET -0.137783 0.006864 -0.002213
									CHANNELS 3 Xrotation Yrotation Zrotation
									JOINT Index2.R
									{
										OFFSET -0.029946 0.001716 -0.000553
										CHANNELS 3 Xrotation Yrotation Zrotation
										JOINT Index3.R
										{
											OFFSET -0.021960 0.001258 -0.000406
											CHANNELS 3 Xrotation Yrotation Zrotation
											End Site
											{
												OFFSET -0.017967 0.001030 -0.000332
											}
										}
									}
								}
								JOINT Middle1.R
								{
									OFFSET -0.119783 0.006864 -0.002213
									CHANNELS 3 Xrotation Yrotation Zrotation
									JOINT Middle2.R
									{
										OFFSET -0.030944 0.001773 -0.000572
										CHANNELS 3 Xrotation Yrotation Zrotation
										JOINT Middle3.R
										{
											OFFSET -0.021960 0.001258 -0.000406
											CHANNELS 3 Xrotation Yrotation Zrotation
											End Site
											{
												OFFSET -0.017967 0.001030 -0.000332
											}
										}
									}
								}
								JOINT Ring1.R
								{
									OFFSET -0.101783 0.006864 -0.002213
									CHANNELS 3 Xrotation Yrotation Zrotation
									JOINT Ring2.R
									{
										OFFSET -0.028948 0.001659 -0.000535
										CHANNELS 3 Xrotation Yrotation Zrotation
										JOINT Ring3.R
										{
											OFFSET -0.019964 0.001144 -0.000369
											CHANNELS 3 Xrotation Yrotation Zrotation
											End Site
											{
												OFFSET -0.016969 0.000972 -0.000313
											}
										}
									}
								}
								JOINT Pinky1.R
								{
									OFFSET -0.085783 0.006864 -0.002213
									CHANNELS 3 Xrotation Yrotation Zrotation
									JOINT Pinky2.R
									{
										OFFSET -0.023957 0.001373 -0.000443
										CHANNELS 3 Xrotation Yrotation Zrotation
										JOINT Pinky3.R
										{
											OFFSET -0.016969 0.000972 -0.000313
											CHANNELS 3 Xrotation Yrotation Zrotation
											End Site
											{
												OFFSET -0.013975 0.000801 -0.000258
											}
										}
									}
								}
							}
						}
					}
				}
			}
		}
	}
}
MOTION
Frames: 7
Frame Time: 0.03333333
-0.069076 0.910829 1.291847 39.911337 3.930876 1.595385 -33.752894 2.025557 -6.905895 75.417585 2.185729 -20.003318 -12.160114 -9.908733 9.874307 -2.807195 -3.112896 1.913257 -77.897297 2.620417 16.575811 122.814067 -12.595808 12.593923 -9.384465 2.942458 -1.382188 -1.766136 -3.875941 0.785044 51.525684 -7.746408 -2.281463 -9.435317 -7.271888 0.342259 2.303964 -1.473245 0.513673 -19.897131 -0.671602 19.948878 -14.633898 4.263135 -6.393494 -19.273376 -8.502406 -36.209907 -19.026645 15.574994 -30.101011 -9.187415 -5.488594 -11.273304 9.715415 -43.198233 -10.477327 0.000000 0.000000 0.000000 0.000000 0.000000 0.000000 0.000000 0.000000 0.000000 0.000000 0.000000 0.000000 0.000000 0.000000 0.000000 0.000000 0.000000 0.000000 0.000000 0.000000 0.000000 0.000000 0.000000 0.000000 0.000000 0.000000 0.000000 0.000000 0.000000 0.000000 0.000000 0.000000 0.000000 0.000000 0.000000 0.000000 0.000000 0.000000 0.000000 0.000000 0.000000 0.000000 -12.598042 -2.523337 34.929775 -2.526828 -29.595204 45.744570 -1.861012 8.040787 9.143558 5.750542 59.660415 9.859263 0.000000 0.000000 0.000000 0.000000 0.000000 0.000000 0.000000 0.000000 0.000000 0.000000 0.000000 0.000000 0.000000 0.000000 0.000000 0.000000 0.000000 0.000000 0.000000 0.000000 0.000000 0.000000 0.000000 0.000000 0.000000 0.000000 0.000000 0.000000 0.000000 0.000000 0.000000 0.000000 0.000000 0.000000 0.000000 0.000000 0.000000 0.000000 0.000000 0.000000 0.000000 0.000000
-0.077725 0.908860 1.285583 37.911561 4.669871 2.343981 -30.043160 1.909690 -6.385137 72.885367 1.158045 -20.166326 -12.064290 -10.647333 11.318461 -2.895691 -2.895317 1.543974 -79.608971 2.918213 16.960924 124.037546 -13.748414 13.359738 -10.055315 1.932702 -0.218428 -2.006595 -3.600093 0.318018 52.182744 -8.394271 -2.215759 -9.500968 -7.199636 0.758372 2.624114 -1.824670 0.723674 -19.412426 -0.125926 19.327291 -14.561319 4.330002 -6.906889 -19.777542 -8.029871 -36.480808 -17.893566 18.138910 -31.223727 -8.553326 -5.390194 -10.593077 8.968676 -44.849038 -10.890543 0.000000 0.000000 0.000000 0.000000 0.000000 0.000000 0.000000 0.000000 0.000000 0.000000 0.000000 0.000000 0.000000 0.000000 0.000000 0.000000 0.000000 0.000000 0.000000 0.000000 0.000000 0.000000 0.000000 0.000000 0.000000 0.000000 0.000000 0.000000 0.000000 0.000000 0.000000 0.000000 0.000000 0.000000 0.000000 0.000000 0.000000 0.000000 0.000000 0.000000 0.000000 0.000000 -11.877169 -3.283704 34.764266 -2.654084 -29.747647 43.463969 -0.812248 8.614894 10.128201 6.179880 59.528711 10.565592 0.000000 0.000000 0.000000 0.000000 0.000000 0.000000 0.000000 0.000000 0.000000 0.000000 0.000000 0.000000 0.000000 0.000000 0.000000 0.000000 0.000000 0.000000 0.000000 0.000000 0.000000 0.000000 0.000000 0.000000 0.000000 0.000000 0.000000 0.000000 0.000000 0.000000 0.000000 0.000000 0.000000 0.000000 0.000000 0.000000 0.000000 0.000000 0.000000 0.000000 0.000000 0.000000
-0.079301 0.914993 1.280906 36.337162 5.139299 3.237683 -26.231885 1.639651 -6.033860 69.483940 0.103609 -20.352931 -10.923901 -10.984636 12.938647 -3.041175 -2.746472 1.258617 -79.964115 2.951272 17.109300 124.006603 -14.586804 13.563778 -9.828694 0.630008 0.777563 -1.963628 -3.329836 -0.096027 51.799662 -8.853703 -2.283008 -9.126936 -7.173120 0.957083 2.708315 -2.069289 0.903071 -18.580057 0.292361 18.558051 -14.466102 4.408846 -7.155467 -19.786231 -7.326741 -36.346565 -16.338325 21.087636 -32.338340 -8.070900 -5.528215 -10.486899 8.295453 -45.661425 -11.245382 0.000000 0.000000 0.000000 0.000000 0.000000 0.000000 0.000000 0.000000 0.000000 0.000000 0.000000 0.000000 0.000000 0.000000 0.000000 0.000000 0.000000 0.000000 0.000000 0.000000 0.000000 0.000000 0.000000 0.000000 0.000000 0.000000 0.000000 0.000000 0.000000 0.000000 0.000000 0.000000 0.000000 0.000000 0.000000 0.000000 0.000000 0.000000 0.000000 0.000000 0.000000 0.000000 -10.800574 -4.228917 34.291796 -2.047378 -30.245085 41.522994 0.537812 9.186524 11.495242 6.568027 58.723798 10.975997 0.000000 0.000000 0.000000 0.000000 0.000000 0.000000 0.000000 0.000000 0.000000 0.000000 0.000000 0.000000 0.000000 0.000000 0.000000 0.000000 0.000000 0.000000 0.000000 0.000000 0.000000 0.000000 0.000000 0.000000 0.000000 0.000000 0.000000 0.000000 0.000000 0.000000 0.000000 0.000000 0.000000 0.000000 0.000000 0.000000 0.000000 0.000000 0.000000 0.000000 0.000000 0.000000
-0.081241 0.924521 1.276510 34.844094 5.524656 3.544816 -21.514860 1.012476 -5.174917 64.657071 -0.811655 -20.627855 -10.643335 -11.694934 14.358494 -3.552755 -2.610475 1.411226 -79.346514 3.339661 16.722427 123.246350 -15.782750 13.608960 -9.168293 -1.602867 2.423403 -1.945541 -2.784136 -0.650623 50.606903 -9.256189 -2.283906 -8.577702 -7.006218 1.458452 2.697527 -2.185855 1.176950 -17.035067 0.883419 17.800528 -14.321837 4.863221 -7.509163 -19.432858 -6.218919 -35.979330 -13.965998 24.580782 -34.057315 -7.790654 -5.736832 -10.478242 8.905241 -46.706303 -11.361251 0.000000 0.000000 0.000000 0.000000 0.000000 0.000000 0.000000 0.000000 0.000000 0.000000 0.000000 0.000000 0.000000 0.000000 0.000000 0.000000 0.000000 0.000000 0.000000 0.000000 0.000000 0.000000 0.000000 0.000000 0.000000 0.000000 0.000000 0.000000 0.000000 0.000000 0.000000 0.000000 0.000000 0.000000 0.000000 0.000000 0.000000 0.000000 0.000000 0.000000 0.000000 0.000000 -9.115583 -5.456835 33.764177 -1.213499 -30.278280 38.880078 1.956857 9.799128 13.679456 6.550507 58.454442 11.425576 0.000000 0.000000 0.000000 0.000000 0.000000 0.000000 0.000000 0.000000 0.000000 0.000000 0.000000 0.000000 0.000000 0.000000 0.000000 0.000000 0.000000 0.000000 0.000000 0.000000 0.000000 0.000000 0.000000 0.000000 0.000000 0.000000 0.000000 0.000000 0.000000 0.000000 0.000000 0.000000 0.000000 0.000000 0.000000 0.000000 0.000000 0.000000 0.000000 0.000000 0.000000 0.000000
-0.065047 0.958981 1.278355 35.222273 4.721563 4.014636 -18.207750 1.085288 -5.430242 60.404807 -1.715845 -20.080596 -8.451829 -8.625765 12.434313 -2.835614 -2.508342 0.825750 -76.880640 3.081995 16.042597 121.967472 -16.743264 12.212723 -7.802276 -3.529453 3.582009 -1.766331 -2.683853 -0.743361 48.398797 -9.243408 -2.509616 -7.956038 -6.856695 1.184947 2.993572 -2.013895 1.463223 -15.572731 1.568287 17.488891 -14.894660 5.120514 -8.051812 -19.319988 -5.607006 -34.112418 -11.305277 29.022501 -35.748967 -6.941218 -6.355515 -10.802341 8.321089 -47.999027 -11.633841 0.000000 0.000000 0.000000 0.000000 0.000000 0.000000 0.000000 0.000000 0.000000 0.000000 0.000000 0.000000 0.000000 0.000000 0.000000 0.000000 0.000000 0.000000 0.000000 0.000000 0.000000 0.000000 0.000000 0.000000 0.000000 0.000000 0.000000 0.000000 0.000000 0.000000 0.000000 0.000000 0.000000 0.000000 0.000000 0.000000 0.000000 0.000000 0.000000 0.000000 0.000000 0.000000 -8.103353 -6.731551 31.796324 0.647405 -31.664159 37.010031 4.260149 11.994045 18.008201 5.157478 58.067055 12.868465 0.000000 0.000000 0.000000 0.000000 0.000000 0.000000 0.000000 0.000000 0.000000 0.000000 0.000000 0.000000 0.000000 0.000000 0.000000 0.000000 0.000000 0.000000 0.000000 0.000000 0.000000 0.000000 0.000000 0.000000 0.000000 0.000000 0.000000 0.000000 0.000000 0.000000 0.000000 0.000000 0.000000 0.000000 0.000000 0.000000 0.000000 0.000000 0.000000 0.000000 0.000000 0.000000
-0.060309 0.986183 1.279380 35.546805 4.489501 4.783848 -14.505162 0.649697 -5.078870 55.188915 -2.150019 -19.952465 -8.660308 -7.901055 11.854585 -2.604861 -2.313193 0.721121 -74.046680 3.072217 15.310900 119.667298 -17.167970 11.323057 -6.359125 -4.871787 3.221635 -1.644727 -2.650042 -0.658565 46.231283 -9.274220 -2.791341 -7.428980 -6.900928 1.079009 3.409899 -2.003863 1.525485 -15.047640 1.796755 17.351579 -14.623368 5.335266 -8.526716 -18.984579 -5.117477 -33.197963 -9.141889 31.932356 -37.382035 -6.182852 -6.447796 -11.086977 8.091112 -48.820136 -11.585515 0.000000 0.000000 0.000000 0.000000 0.000000 0.000000 0.000000 0.000000 0.000000 0.000000 0.000000 0.000000 0.000000 0.000000 0.000000 0.000000 0.000000 0.000000 0.000000 0.000000 0.000000 0.000000 0.000000 0.000000 0.000000 0.000000 0.000000 0.000000 0.000000 0.000000 0.000000 0.000000 0.000000 0.000000 0.000000 0.000000 0.000000 0.000000 0.000000 0.000000 0.000000 0.000000 -7.544852 -7.356279 29.472406 2.769802 -33.059372 34.870449 5.068653 15.602854 23.829434 3.598456 57.928957 13.647587 0.000000 0.000000 0.000000 0.000000 0.000000 0.000000 0.000000 0.000000 0.000000 0.000000 0.000000 0.000000 0.000000 0.000000 0.000000 0.000000 0.000000 0.000000 0.000000 0.000000 0.000000 0.000000 0.000000 0.000000 0.000000 0.000000 0.000000 0.000000 0.000000 0.000000 0.000000 0.000000 0.000000 0.000000 0.000000 0.000000 0.000000 0.000000 0.000000 0.000000 0.000000 0.000000
-0.056083 1.018335 1.282501 36.591721 4.567000 5.530182 -12.082284 0.043293 -5.013656 51.029207 -2.472047 -19.642628 -7.630983 -6.639910 11.372692 -2.417121 -1.966359 0.540269 -70.976340 2.860939 14.475331 117.020023 -17.269685 10.668819 -6.537220 -5.938993 3.529521 -1.723111 -2.590670 -0.479466 43.917276 -8.922204 -3.051237 -6.731400 -7.035005 0.861328 3.732641 -1.904184 1.540624 -14.536111 2.002990 17.029843 -14.570647 5.320117 -9.074714 -18.550027 -4.671446 -32.409898 -7.251681 34.156572 -38.616238 -5.608518 -7.024831 -11.890526 8.315468 -49.678815 -11.236714 0.000000 0.000000 0.000000 0.000000 0.000000 0.000000 0.000000 0.000000 0.000000 0.000000 0.000000 0.000000 0.000000 0.000000 0.000000 0.000000 0.000000 0.000000 0.000000 0.000000 0.000000 0.000000 0.000000 0.000000 0.000000 0.000000 0.000000 0.000000 0.000000 0.000000 0.000000 0.000000 0.000000 0.000000 0.000000 0.000000 0.000000 0.000000 0.000000 0.000000 0.000000 0.000000 -6.768078 -8.100646 27.834254 4.416904 -34.104092 32.430259 5.128388 18.806805 29.795955 2.037468 57.918420 14.497566 0.000000 0.000000 0.000000 0.000000 0.000000 0.000000 0.000000 0.000000 0.000000 0.000000 0.000000 0.000000 0.000000 0.000000 0.000000 0.000000 0.000000 0.000000 0.000000 0.000000 0.000000 0.000000 0.000000 0.000000 0.000000 0.000000 0.000000 0.000000 0.000000 0.000000 0.000000 0.000000 0.000000 0.000000 0.000000 0.000000 0.000000 0.000000 0.000000 0.000000 0.000000 0.000000
